<svg xmlns="http://www.w3.org/2000/svg" fill="none" viewBox="0 62 608 761"><path d="M0 92C0 75.4315 13.4315 62 30 62H608V822H30C13.4315 822 0 808.569 0 792V92Z" fill="#5c3cfbd9" fill-opacity="0.8" data-darkreader-inline-fill="" style="--darkreader-inline-fill: #1f03a7;"></path><g filter="url(#filter0_d_1_180)"><mask id="path-2-outside-1_1_180" maskUnits="userSpaceOnUse" x="396" y="769" width="106" height="54" fill="black" data-darkreader-inline-fill="" style="--darkreader-inline-fill: #e8e6e3;"><rect fill="white" x="396" y="769" width="106" height="54" data-darkreader-inline-fill="" style="--darkreader-inline-fill: #e8e6e3;"></rect><path d="M501 822C501 815.171 499.655 808.409 497.042 802.1C494.428 795.792 490.598 790.059 485.77 785.23C480.941 780.402 475.208 776.572 468.9 773.958C462.591 771.345 455.829 770 449 770C442.171 770 435.409 771.345 429.1 773.958C422.792 776.572 417.059 780.402 412.23 785.23C407.402 790.059 403.572 795.792 400.958 802.1C398.345 808.409 397 815.171 397 822L449 822H501Z"></path></mask><path d="M501 822C501 815.171 499.655 808.409 497.042 802.1C494.428 795.792 490.598 790.059 485.77 785.23C480.941 780.402 475.208 776.572 468.9 773.958C462.591 771.345 455.829 770 449 770C442.171 770 435.409 771.345 429.1 773.958C422.792 776.572 417.059 780.402 412.23 785.23C407.402 790.059 403.572 795.792 400.958 802.1C398.345 808.409 397 815.171 397 822L449 822H501Z" fill="url(#paint0_linear_1_180)" shape-rendering="crispEdges"></path><path d="M501 822C501 815.171 499.655 808.409 497.042 802.1C494.428 795.792 490.598 790.059 485.77 785.23C480.941 780.402 475.208 776.572 468.9 773.958C462.591 771.345 455.829 770 449 770C442.171 770 435.409 771.345 429.1 773.958C422.792 776.572 417.059 780.402 412.23 785.23C407.402 790.059 403.572 795.792 400.958 802.1C398.345 808.409 397 815.171 397 822L449 822H501Z" stroke="#23CC9E" stroke-opacity="0.24" stroke-width="2" shape-rendering="crispEdges" mask="url(#path-2-outside-1_1_180)" data-darkreader-inline-stroke="" style="--darkreader-inline-stroke: #45dfb5;"></path></g><g filter="url(#filter1_d_1_180)"><circle cx="508.5" cy="759.5" r="14.5" fill="url(#paint1_linear_1_180)"></circle></g><g filter="url(#filter2_d_1_180)"><circle cx="509" cy="148" r="10" fill="url(#paint2_linear_1_180)"></circle></g><g filter="url(#filter3_d_1_180)"><circle cx="100.5" cy="641.5" r="25.5" fill="url(#paint3_linear_1_180)"></circle></g><g filter="url(#filter4_d_1_180)"><path d="M447 756C438.267 756 429.62 757.733 421.561 761.099C413.503 764.466 406.192 769.398 400.054 775.61C393.915 781.822 389.07 789.191 385.801 797.289C382.531 805.387 380.901 814.054 381.005 822.787L382.321 822.771C382.219 814.212 383.816 805.718 387.021 797.782C390.226 789.845 394.974 782.623 400.99 776.535C407.006 770.447 414.171 765.613 422.069 762.314C429.967 759.015 438.441 757.316 447 757.316L447 756Z" fill="white" data-darkreader-inline-fill="" style="--darkreader-inline-fill: #e8e6e3;"></path></g><rect x="226.535" y="760.309" width="6.09375" height="24.6071" transform="rotate(-45 226.535 760.309)" fill="white" data-darkreader-inline-fill="" style="--darkreader-inline-fill: #e8e6e3;"></rect><rect x="226.535" y="760.309" width="6.09375" height="24.6071" transform="rotate(-45 226.535 760.309)" fill="white" data-darkreader-inline-fill="" style="--darkreader-inline-fill: #e8e6e3;"></rect><rect x="226.535" y="760.309" width="6.09375" height="24.6071" transform="rotate(-45 226.535 760.309)" fill="white" data-darkreader-inline-fill="" style="--darkreader-inline-fill: #e8e6e3;"></rect><rect x="226.535" y="760.309" width="6.09375" height="24.6071" transform="rotate(-45 226.535 760.309)" fill="white" data-darkreader-inline-fill="" style="--darkreader-inline-fill: #e8e6e3;"></rect><rect x="243.4" y="756.473" width="6.09375" height="24.6076" transform="rotate(45 243.4 756.473)" fill="white" data-darkreader-inline-fill="" style="--darkreader-inline-fill: #e8e6e3;"></rect><rect x="243.4" y="756.473" width="6.09375" height="24.6076" transform="rotate(45 243.4 756.473)" fill="white" data-darkreader-inline-fill="" style="--darkreader-inline-fill: #e8e6e3;"></rect><rect x="243.4" y="756.473" width="6.09375" height="24.6076" transform="rotate(45 243.4 756.473)" fill="white" data-darkreader-inline-fill="" style="--darkreader-inline-fill: #e8e6e3;"></rect><rect x="243.4" y="756.473" width="6.09375" height="24.6076" transform="rotate(45 243.4 756.473)" fill="white" data-darkreader-inline-fill="" style="--darkreader-inline-fill: #e8e6e3;"></rect><g filter="url(#filter5_d_1_180)"><circle cx="75" cy="772" r="4" fill="white" data-darkreader-inline-fill="" style="--darkreader-inline-fill: #e8e6e3;"></circle><circle cx="91" cy="772" r="4" fill="white" data-darkreader-inline-fill="" style="--darkreader-inline-fill: #e8e6e3;"></circle><circle cx="107" cy="772" r="4" fill="white" data-darkreader-inline-fill="" style="--darkreader-inline-fill: #e8e6e3;"></circle><circle cx="123" cy="772" r="4" fill="white" data-darkreader-inline-fill="" style="--darkreader-inline-fill: #e8e6e3;"></circle><circle cx="139" cy="772" r="4" fill="white" data-darkreader-inline-fill="" style="--darkreader-inline-fill: #e8e6e3;"></circle><circle cx="155" cy="772" r="4" fill="white" data-darkreader-inline-fill="" style="--darkreader-inline-fill: #e8e6e3;"></circle><circle cx="75" cy="756" r="4" fill="white" data-darkreader-inline-fill="" style="--darkreader-inline-fill: #e8e6e3;"></circle><circle cx="91" cy="756" r="4" fill="white" data-darkreader-inline-fill="" style="--darkreader-inline-fill: #e8e6e3;"></circle><circle cx="107" cy="756" r="4" fill="white" data-darkreader-inline-fill="" style="--darkreader-inline-fill: #e8e6e3;"></circle><circle cx="123" cy="756" r="4" fill="white" data-darkreader-inline-fill="" style="--darkreader-inline-fill: #e8e6e3;"></circle><circle cx="139" cy="756" r="4" fill="white" data-darkreader-inline-fill="" style="--darkreader-inline-fill: #e8e6e3;"></circle><circle cx="155" cy="756" r="4" fill="white" data-darkreader-inline-fill="" style="--darkreader-inline-fill: #e8e6e3;"></circle><circle cx="75" cy="740" r="4" fill="white" data-darkreader-inline-fill="" style="--darkreader-inline-fill: #e8e6e3;"></circle><circle cx="91" cy="740" r="4" fill="white" data-darkreader-inline-fill="" style="--darkreader-inline-fill: #e8e6e3;"></circle><circle cx="107" cy="740" r="4" fill="white" data-darkreader-inline-fill="" style="--darkreader-inline-fill: #e8e6e3;"></circle><circle cx="123" cy="740" r="4" fill="white" data-darkreader-inline-fill="" style="--darkreader-inline-fill: #e8e6e3;"></circle><circle cx="139" cy="740" r="4" fill="white" data-darkreader-inline-fill="" style="--darkreader-inline-fill: #e8e6e3;"></circle><circle cx="155" cy="740" r="4" fill="white" data-darkreader-inline-fill="" style="--darkreader-inline-fill: #e8e6e3;"></circle><circle cx="75" cy="724" r="4" fill="white" data-darkreader-inline-fill="" style="--darkreader-inline-fill: #e8e6e3;"></circle><circle cx="91" cy="724" r="4" fill="white" data-darkreader-inline-fill="" style="--darkreader-inline-fill: #e8e6e3;"></circle><circle cx="107" cy="724" r="4" fill="white" data-darkreader-inline-fill="" style="--darkreader-inline-fill: #e8e6e3;"></circle><circle cx="123" cy="724" r="4" fill="white" data-darkreader-inline-fill="" style="--darkreader-inline-fill: #e8e6e3;"></circle><circle cx="139" cy="724" r="4" fill="white" data-darkreader-inline-fill="" style="--darkreader-inline-fill: #e8e6e3;"></circle><circle cx="155" cy="724" r="4" fill="white" data-darkreader-inline-fill="" style="--darkreader-inline-fill: #e8e6e3;"></circle><circle cx="75" cy="708" r="4" fill="white" data-darkreader-inline-fill="" style="--darkreader-inline-fill: #e8e6e3;"></circle><circle cx="91" cy="708" r="4" fill="white" data-darkreader-inline-fill="" style="--darkreader-inline-fill: #e8e6e3;"></circle><circle cx="107" cy="708" r="4" fill="white" data-darkreader-inline-fill="" style="--darkreader-inline-fill: #e8e6e3;"></circle><circle cx="123" cy="708" r="4" fill="white" data-darkreader-inline-fill="" style="--darkreader-inline-fill: #e8e6e3;"></circle><circle cx="139" cy="708" r="4" fill="white" data-darkreader-inline-fill="" style="--darkreader-inline-fill: #e8e6e3;"></circle><circle cx="155" cy="708" r="4" fill="white" data-darkreader-inline-fill="" style="--darkreader-inline-fill: #e8e6e3;"></circle><circle cx="75" cy="692" r="4" fill="white" data-darkreader-inline-fill="" style="--darkreader-inline-fill: #e8e6e3;"></circle><circle cx="91" cy="692" r="4" fill="white" data-darkreader-inline-fill="" style="--darkreader-inline-fill: #e8e6e3;"></circle><circle cx="107" cy="692" r="4" fill="white" data-darkreader-inline-fill="" style="--darkreader-inline-fill: #e8e6e3;"></circle><circle cx="123" cy="692" r="4" fill="white" data-darkreader-inline-fill="" style="--darkreader-inline-fill: #e8e6e3;"></circle><circle cx="139" cy="692" r="4" fill="white" data-darkreader-inline-fill="" style="--darkreader-inline-fill: #e8e6e3;"></circle><circle cx="155" cy="692" r="4" fill="white" data-darkreader-inline-fill="" style="--darkreader-inline-fill: #e8e6e3;"></circle></g><g filter="url(#filter6_d_1_180)"><circle cx="66" cy="192" r="4" fill="white" data-darkreader-inline-fill="" style="--darkreader-inline-fill: #e8e6e3;"></circle><circle cx="82" cy="192" r="4" fill="white" data-darkreader-inline-fill="" style="--darkreader-inline-fill: #e8e6e3;"></circle><circle cx="98" cy="192" r="4" fill="white" data-darkreader-inline-fill="" style="--darkreader-inline-fill: #e8e6e3;"></circle><circle cx="114" cy="192" r="4" fill="white" data-darkreader-inline-fill="" style="--darkreader-inline-fill: #e8e6e3;"></circle><circle cx="130" cy="192" r="4" fill="white" data-darkreader-inline-fill="" style="--darkreader-inline-fill: #e8e6e3;"></circle><circle cx="146" cy="192" r="4" fill="white" data-darkreader-inline-fill="" style="--darkreader-inline-fill: #e8e6e3;"></circle><circle cx="66" cy="176" r="4" fill="white" data-darkreader-inline-fill="" style="--darkreader-inline-fill: #e8e6e3;"></circle><circle cx="82" cy="176" r="4" fill="white" data-darkreader-inline-fill="" style="--darkreader-inline-fill: #e8e6e3;"></circle><circle cx="98" cy="176" r="4" fill="white" data-darkreader-inline-fill="" style="--darkreader-inline-fill: #e8e6e3;"></circle><circle cx="114" cy="176" r="4" fill="white" data-darkreader-inline-fill="" style="--darkreader-inline-fill: #e8e6e3;"></circle><circle cx="130" cy="176" r="4" fill="white" data-darkreader-inline-fill="" style="--darkreader-inline-fill: #e8e6e3;"></circle><circle cx="146" cy="176" r="4" fill="white" data-darkreader-inline-fill="" style="--darkreader-inline-fill: #e8e6e3;"></circle><circle cx="66" cy="160" r="4" fill="white" data-darkreader-inline-fill="" style="--darkreader-inline-fill: #e8e6e3;"></circle><circle cx="82" cy="160" r="4" fill="white" data-darkreader-inline-fill="" style="--darkreader-inline-fill: #e8e6e3;"></circle><circle cx="98" cy="160" r="4" fill="white" data-darkreader-inline-fill="" style="--darkreader-inline-fill: #e8e6e3;"></circle><circle cx="114" cy="160" r="4" fill="white" data-darkreader-inline-fill="" style="--darkreader-inline-fill: #e8e6e3;"></circle><circle cx="130" cy="160" r="4" fill="white" data-darkreader-inline-fill="" style="--darkreader-inline-fill: #e8e6e3;"></circle><circle cx="146" cy="160" r="4" fill="white" data-darkreader-inline-fill="" style="--darkreader-inline-fill: #e8e6e3;"></circle><circle cx="66" cy="144" r="4" fill="white" data-darkreader-inline-fill="" style="--darkreader-inline-fill: #e8e6e3;"></circle><circle cx="82" cy="144" r="4" fill="white" data-darkreader-inline-fill="" style="--darkreader-inline-fill: #e8e6e3;"></circle><circle cx="98" cy="144" r="4" fill="white" data-darkreader-inline-fill="" style="--darkreader-inline-fill: #e8e6e3;"></circle><circle cx="114" cy="144" r="4" fill="white" data-darkreader-inline-fill="" style="--darkreader-inline-fill: #e8e6e3;"></circle><circle cx="130" cy="144" r="4" fill="white" data-darkreader-inline-fill="" style="--darkreader-inline-fill: #e8e6e3;"></circle><circle cx="146" cy="144" r="4" fill="white" data-darkreader-inline-fill="" style="--darkreader-inline-fill: #e8e6e3;"></circle></g><g filter="url(#filter7_d_1_180)"><path d="M175 62.5C175 79.076 168.415 94.9731 156.694 106.694C144.973 118.415 129.076 125 112.5 125C95.924 125 80.0269 118.415 68.3058 106.694C56.5848 94.9732 50 79.076 50 62.5L112.5 62.5H175Z" fill="white" data-darkreader-inline-fill="" style="--darkreader-inline-fill: #e8e6e3;"></path></g><path d="M196 83H240V191C240 203.15 230.15 213 218 213V213C205.85 213 196 203.15 196 191V83Z" fill="url(#paint4_linear_1_180)" fill-opacity="0.5"></path><path d="M196 83H240V191C240 203.15 230.15 213 218 213V213C205.85 213 196 203.15 196 191V83Z" fill="url(#paint5_linear_1_180)" fill-opacity="0.5"></path><path d="M291 111H356V260C356 276.569 342.569 290 326 290H321C304.431 290 291 276.569 291 260V111Z" fill="url(#paint6_linear_1_180)" fill-opacity="0.5"></path><path d="M291 111H356V260C356 276.569 342.569 290 326 290H321C304.431 290 291 276.569 291 260V111Z" fill="url(#paint7_linear_1_180)" fill-opacity="0.5"></path><mask id="path-72-inside-2_1_180" fill="white" data-darkreader-inline-fill="" style="--darkreader-inline-fill: #e8e6e3;"><path d="M255 62H320V160C320 176.569 306.569 190 290 190H285C268.431 190 255 176.569 255 160V62Z"></path></mask><path d="M255 62H320H255ZM322 160C322 177.673 307.673 192 290 192H285C267.327 192 253 177.673 253 160H257C257 175.464 269.536 188 285 188H290C305.464 188 318 175.464 318 160H322ZM285 192C267.327 192 253 177.673 253 160V62H257V160C257 175.464 269.536 188 285 188V192ZM322 62V160C322 177.673 307.673 192 290 192V188C305.464 188 318 175.464 318 160V62H322Z" fill="white" mask="url(#path-72-inside-2_1_180)" data-darkreader-inline-fill="" style="--darkreader-inline-fill: #e8e6e3;"></path><g filter="url(#filter8_d_1_180)"><circle cx="464" cy="179" r="15" fill="white" data-darkreader-inline-fill="" style="--darkreader-inline-fill: #e8e6e3;"></circle></g><g filter="url(#filter9_d_1_180)"><path d="M471.147 150.786C476.836 152.15 481.967 155.233 485.844 159.614C489.721 163.996 492.156 169.465 492.817 175.278C493.479 181.091 492.335 186.967 489.542 192.107C486.748 197.248 482.441 201.404 477.203 204.012C471.966 206.62 466.053 207.553 460.267 206.684C454.482 205.815 449.104 203.187 444.863 199.156C440.623 195.125 437.726 189.886 436.566 184.152C435.406 178.417 436.039 172.465 438.378 167.102L440.465 168.013C438.312 172.947 437.73 178.424 438.797 183.7C439.865 188.977 442.53 193.797 446.432 197.506C450.333 201.215 455.282 203.633 460.606 204.433C465.929 205.232 471.37 204.374 476.189 201.974C481.008 199.575 484.971 195.751 487.542 191.02C490.112 186.29 491.164 180.884 490.555 175.535C489.947 170.186 487.707 165.155 484.14 161.123C480.572 157.091 475.851 154.255 470.616 153L471.147 150.786Z" fill="white" data-darkreader-inline-fill="" style="--darkreader-inline-fill: #e8e6e3;"></path></g><defs><filter id="filter0_d_1_180" x="392" y="769" width="114" height="62" filterUnits="userSpaceOnUse" color-interpolation-filters="sRGB"><feFlood flood-opacity="0" result="BackgroundImageFix"></feFlood><feColorMatrix in="SourceAlpha" type="matrix" values="0 0 0 0 0 0 0 0 0 0 0 0 0 0 0 0 0 0 127 0" result="hardAlpha"></feColorMatrix><feOffset dy="4"></feOffset><feGaussianBlur stdDeviation="2"></feGaussianBlur><feComposite in2="hardAlpha" operator="out"></feComposite><feColorMatrix type="matrix" values="0 0 0 0 0 0 0 0 0 0 0 0 0 0 0 0 0 0 0.25 0"></feColorMatrix><feBlend mode="normal" in2="BackgroundImageFix" result="effect1_dropShadow_1_180"></feBlend><feBlend mode="normal" in="SourceGraphic" in2="effect1_dropShadow_1_180" result="shape"></feBlend></filter><filter id="filter1_d_1_180" x="490" y="745" width="37" height="37" filterUnits="userSpaceOnUse" color-interpolation-filters="sRGB"><feFlood flood-opacity="0" result="BackgroundImageFix"></feFlood><feColorMatrix in="SourceAlpha" type="matrix" values="0 0 0 0 0 0 0 0 0 0 0 0 0 0 0 0 0 0 127 0" result="hardAlpha"></feColorMatrix><feOffset dy="4"></feOffset><feGaussianBlur stdDeviation="2"></feGaussianBlur><feComposite in2="hardAlpha" operator="out"></feComposite><feColorMatrix type="matrix" values="0 0 0 0 0 0 0 0 0 0 0 0 0 0 0 0 0 0 0.25 0"></feColorMatrix><feBlend mode="normal" in2="BackgroundImageFix" result="effect1_dropShadow_1_180"></feBlend><feBlend mode="normal" in="SourceGraphic" in2="effect1_dropShadow_1_180" result="shape"></feBlend></filter><filter id="filter2_d_1_180" x="495" y="138" width="28" height="28" filterUnits="userSpaceOnUse" color-interpolation-filters="sRGB"><feFlood flood-opacity="0" result="BackgroundImageFix"></feFlood><feColorMatrix in="SourceAlpha" type="matrix" values="0 0 0 0 0 0 0 0 0 0 0 0 0 0 0 0 0 0 127 0" result="hardAlpha"></feColorMatrix><feOffset dy="4"></feOffset><feGaussianBlur stdDeviation="2"></feGaussianBlur><feComposite in2="hardAlpha" operator="out"></feComposite><feColorMatrix type="matrix" values="0 0 0 0 0 0 0 0 0 0 0 0 0 0 0 0 0 0 0.25 0"></feColorMatrix><feBlend mode="normal" in2="BackgroundImageFix" result="effect1_dropShadow_1_180"></feBlend><feBlend mode="normal" in="SourceGraphic" in2="effect1_dropShadow_1_180" result="shape"></feBlend></filter><filter id="filter3_d_1_180" x="71" y="616" width="59" height="59" filterUnits="userSpaceOnUse" color-interpolation-filters="sRGB"><feFlood flood-opacity="0" result="BackgroundImageFix"></feFlood><feColorMatrix in="SourceAlpha" type="matrix" values="0 0 0 0 0 0 0 0 0 0 0 0 0 0 0 0 0 0 127 0" result="hardAlpha"></feColorMatrix><feOffset dy="4"></feOffset><feGaussianBlur stdDeviation="2"></feGaussianBlur><feComposite in2="hardAlpha" operator="out"></feComposite><feColorMatrix type="matrix" values="0 0 0 0 0 0 0 0 0 0 0 0 0 0 0 0 0 0 0.25 0"></feColorMatrix><feBlend mode="normal" in2="BackgroundImageFix" result="effect1_dropShadow_1_180"></feBlend><feBlend mode="normal" in="SourceGraphic" in2="effect1_dropShadow_1_180" result="shape"></feBlend></filter><filter id="filter4_d_1_180" x="377" y="756" width="74" height="74.7867" filterUnits="userSpaceOnUse" color-interpolation-filters="sRGB"><feFlood flood-opacity="0" result="BackgroundImageFix"></feFlood><feColorMatrix in="SourceAlpha" type="matrix" values="0 0 0 0 0 0 0 0 0 0 0 0 0 0 0 0 0 0 127 0" result="hardAlpha"></feColorMatrix><feOffset dy="4"></feOffset><feGaussianBlur stdDeviation="2"></feGaussianBlur><feComposite in2="hardAlpha" operator="out"></feComposite><feColorMatrix type="matrix" values="0 0 0 0 0 0 0 0 0 0 0 0 0 0 0 0 0 0 0.25 0"></feColorMatrix><feBlend mode="normal" in2="BackgroundImageFix" result="effect1_dropShadow_1_180"></feBlend><feBlend mode="normal" in="SourceGraphic" in2="effect1_dropShadow_1_180" result="shape"></feBlend></filter><filter id="filter5_d_1_180" x="67" y="688" width="108" height="104" filterUnits="userSpaceOnUse" color-interpolation-filters="sRGB"><feFlood flood-opacity="0" result="BackgroundImageFix"></feFlood><feColorMatrix in="SourceAlpha" type="matrix" values="0 0 0 0 0 0 0 0 0 0 0 0 0 0 0 0 0 0 127 0" result="hardAlpha"></feColorMatrix><feOffset dy="4"></feOffset><feGaussianBlur stdDeviation="2"></feGaussianBlur><feComposite in2="hardAlpha" operator="out"></feComposite><feColorMatrix type="matrix" values="0 0 0 0 0 0 0 0 0 0 0 0 0 0 0 0 0 0 0.25 0"></feColorMatrix><feBlend mode="normal" in2="BackgroundImageFix" result="effect1_dropShadow_1_180"></feBlend><feBlend mode="normal" in="SourceGraphic" in2="effect1_dropShadow_1_180" result="shape"></feBlend></filter><filter id="filter6_d_1_180" x="58" y="140" width="108" height="72" filterUnits="userSpaceOnUse" color-interpolation-filters="sRGB"><feFlood flood-opacity="0" result="BackgroundImageFix"></feFlood><feColorMatrix in="SourceAlpha" type="matrix" values="0 0 0 0 0 0 0 0 0 0 0 0 0 0 0 0 0 0 127 0" result="hardAlpha"></feColorMatrix><feOffset dy="4"></feOffset><feGaussianBlur stdDeviation="2"></feGaussianBlur><feComposite in2="hardAlpha" operator="out"></feComposite><feColorMatrix type="matrix" values="0 0 0 0 0 0 0 0 0 0 0 0 0 0 0 0 0 0 0.25 0"></feColorMatrix><feBlend mode="normal" in2="BackgroundImageFix" result="effect1_dropShadow_1_180"></feBlend><feBlend mode="normal" in="SourceGraphic" in2="effect1_dropShadow_1_180" result="shape"></feBlend></filter><filter id="filter7_d_1_180" x="46" y="62.5" width="133" height="70.5" filterUnits="userSpaceOnUse" color-interpolation-filters="sRGB"><feFlood flood-opacity="0" result="BackgroundImageFix"></feFlood><feColorMatrix in="SourceAlpha" type="matrix" values="0 0 0 0 0 0 0 0 0 0 0 0 0 0 0 0 0 0 127 0" result="hardAlpha"></feColorMatrix><feOffset dy="4"></feOffset><feGaussianBlur stdDeviation="2"></feGaussianBlur><feComposite in2="hardAlpha" operator="out"></feComposite><feColorMatrix type="matrix" values="0 0 0 0 0 0 0 0 0 0 0 0 0 0 0 0 0 0 0.25 0"></feColorMatrix><feBlend mode="normal" in2="BackgroundImageFix" result="effect1_dropShadow_1_180"></feBlend><feBlend mode="normal" in="SourceGraphic" in2="effect1_dropShadow_1_180" result="shape"></feBlend></filter><filter id="filter8_d_1_180" x="445" y="164" width="38" height="38" filterUnits="userSpaceOnUse" color-interpolation-filters="sRGB"><feFlood flood-opacity="0" result="BackgroundImageFix"></feFlood><feColorMatrix in="SourceAlpha" type="matrix" values="0 0 0 0 0 0 0 0 0 0 0 0 0 0 0 0 0 0 127 0" result="hardAlpha"></feColorMatrix><feOffset dy="4"></feOffset><feGaussianBlur stdDeviation="2"></feGaussianBlur><feComposite in2="hardAlpha" operator="out"></feComposite><feColorMatrix type="matrix" values="0 0 0 0 0 0 0 0 0 0 0 0 0 0 0 0 0 0 0.25 0"></feColorMatrix><feBlend mode="normal" in2="BackgroundImageFix" result="effect1_dropShadow_1_180"></feBlend><feBlend mode="normal" in="SourceGraphic" in2="effect1_dropShadow_1_180" result="shape"></feBlend></filter><filter id="filter9_d_1_180" x="432" y="150.786" width="65" height="64.2141" filterUnits="userSpaceOnUse" color-interpolation-filters="sRGB"><feFlood flood-opacity="0" result="BackgroundImageFix"></feFlood><feColorMatrix in="SourceAlpha" type="matrix" values="0 0 0 0 0 0 0 0 0 0 0 0 0 0 0 0 0 0 127 0" result="hardAlpha"></feColorMatrix><feOffset dy="4"></feOffset><feGaussianBlur stdDeviation="2"></feGaussianBlur><feComposite in2="hardAlpha" operator="out"></feComposite><feColorMatrix type="matrix" values="0 0 0 0 0 0 0 0 0 0 0 0 0 0 0 0 0 0 0.25 0"></feColorMatrix><feBlend mode="normal" in2="BackgroundImageFix" result="effect1_dropShadow_1_180"></feBlend><feBlend mode="normal" in="SourceGraphic" in2="effect1_dropShadow_1_180" result="shape"></feBlend></filter><linearGradient id="paint0_linear_1_180" x1="451.971" y1="796.743" x2="503.229" y2="824.6" gradientUnits="userSpaceOnUse"><stop stop-color="#4A6ADF" data-darkreader-inline-stopcolor="" style="--darkreader-inline-stopcolor: #1b3698;"></stop><stop offset="1" stop-color="white" stop-opacity="0" data-darkreader-inline-stopcolor="" style="--darkreader-inline-stopcolor: #181a1b;"></stop></linearGradient><linearGradient id="paint1_linear_1_180" x1="506.5" y1="763" x2="519" y2="769" gradientUnits="userSpaceOnUse"><stop stop-color="#4A6ADF" data-darkreader-inline-stopcolor="" style="--darkreader-inline-stopcolor: #1b3698;"></stop><stop offset="1" stop-color="white" data-darkreader-inline-stopcolor="" style="--darkreader-inline-stopcolor: #181a1b;"></stop></linearGradient><linearGradient id="paint2_linear_1_180" x1="507.621" y1="150.414" x2="516.241" y2="154.552" gradientUnits="userSpaceOnUse"><stop stop-color="#4A6ADF" data-darkreader-inline-stopcolor="" style="--darkreader-inline-stopcolor: #1b3698;"></stop><stop offset="1" stop-color="white" data-darkreader-inline-stopcolor="" style="--darkreader-inline-stopcolor: #181a1b;"></stop></linearGradient><linearGradient id="paint3_linear_1_180" x1="96.9828" y1="647.655" x2="118.966" y2="658.207" gradientUnits="userSpaceOnUse"><stop stop-color="#4A6ADF" data-darkreader-inline-stopcolor="" style="--darkreader-inline-stopcolor: #1b3698;"></stop><stop offset="1" stop-color="white" data-darkreader-inline-stopcolor="" style="--darkreader-inline-stopcolor: #181a1b;"></stop></linearGradient><linearGradient id="paint4_linear_1_180" x1="218" y1="213" x2="218" y2="83" gradientUnits="userSpaceOnUse"><stop offset="0.62433" stop-color="white" data-darkreader-inline-stopcolor="" style="--darkreader-inline-stopcolor: #181a1b;"></stop><stop offset="1" stop-color="white" stop-opacity="0" data-darkreader-inline-stopcolor="" style="--darkreader-inline-stopcolor: #181a1b;"></stop></linearGradient><linearGradient id="paint5_linear_1_180" x1="218" y1="213" x2="218" y2="83" gradientUnits="userSpaceOnUse"><stop offset="0.62433" stop-color="white" data-darkreader-inline-stopcolor="" style="--darkreader-inline-stopcolor: #181a1b;"></stop><stop offset="1" stop-color="white" stop-opacity="0" data-darkreader-inline-stopcolor="" style="--darkreader-inline-stopcolor: #181a1b;"></stop></linearGradient><linearGradient id="paint6_linear_1_180" x1="323.5" y1="290" x2="323.5" y2="111" gradientUnits="userSpaceOnUse"><stop offset="0.62433" stop-color="white" data-darkreader-inline-stopcolor="" style="--darkreader-inline-stopcolor: #181a1b;"></stop><stop offset="1" stop-color="white" stop-opacity="0" data-darkreader-inline-stopcolor="" style="--darkreader-inline-stopcolor: #181a1b;"></stop></linearGradient><linearGradient id="paint7_linear_1_180" x1="323.5" y1="290" x2="323.5" y2="111" gradientUnits="userSpaceOnUse"><stop offset="0.62433" stop-color="white" data-darkreader-inline-stopcolor="" style="--darkreader-inline-stopcolor: #181a1b;"></stop><stop offset="1" stop-color="white" stop-opacity="0" data-darkreader-inline-stopcolor="" style="--darkreader-inline-stopcolor: #181a1b;"></stop></linearGradient></defs></svg>